<svg data-v-423bf9ae="" xmlns="http://www.w3.org/2000/svg" viewBox="0 0 368 90" class="iconLeft"><!----><!----><!----><g data-v-423bf9ae="" id="f91d7792-cba3-44c7-bf50-7023b8760cb2" fill="black" transform="matrix(4.51127815246582,0,0,4.51127815246582,111.35897064208984,11.842105865478516)"><path d="M3.05 4.33C3.44 4.33 3.77 4.40 4.02 4.49L4.45 5.64C4.84 5.64 5.17 5.32 5.17 4.94C5.17 4.16 4.16 3.81 3.12 3.81C1.60 3.81 0.60 4.54 0.60 5.67C0.60 6.78 1.44 7.25 2.38 7.69C3.16 8.04 4.14 8.37 4.14 9.06C4.14 9.73 3.50 10.12 2.60 10.12C2.31 10.12 1.83 9.98 1.57 9.81L1.23 8.86C0.87 8.86 0.56 9.13 0.56 9.49C0.56 10.29 1.30 10.65 2.72 10.65C4.34 10.65 5.26 9.88 5.26 8.69C5.26 7.46 4.20 6.99 3.21 6.57C2.55 6.29 1.71 5.94 1.71 5.19C1.71 4.72 2.23 4.33 3.05 4.33ZM7.84 0.74C7.42 0.74 7.08 1.08 7.08 1.50C7.08 1.92 7.42 2.25 7.84 2.25C8.25 2.25 8.60 1.92 8.60 1.50C8.60 1.08 8.25 0.74 7.84 0.74ZM8.54 4.47C8.54 4.47 8.55 3.81 7.78 3.81C7.32 3.81 6.71 3.91 6.38 3.96L6.38 4.47L7.22 4.47L7.22 10.50L8.54 10.50ZM14.27 3.81C13.52 3.81 12.66 4.38 12.36 5.43L12.36 4.47C12.36 4.47 12.38 3.81 11.61 3.81C11.14 3.81 10.53 3.91 10.21 3.96L10.21 4.47L11.05 4.47L11.05 10.50L12.36 10.50L12.36 7.39C12.36 5.42 13.23 4.47 13.93 4.47C14.59 4.47 15.09 5.05 15.09 5.89L15.09 10.50L16.41 10.50L16.41 7C16.41 5.25 17.26 4.47 17.95 4.47C18.73 4.47 19.12 5.18 19.12 6.20L19.12 9.38C19.12 10.36 19.81 10.65 20.33 10.65C20.71 10.65 21.07 10.60 21.27 10.50L21.27 10.00C20.83 10.00 20.44 9.79 20.44 9.35L20.44 6.31C20.44 4.83 19.84 3.81 18.26 3.81C17.47 3.81 16.58 4.38 16.27 5.40C16.07 4.37 15.44 3.81 14.27 3.81ZM23.94 4.66C23.94 4.66 23.95 3.81 23.18 3.81C22.72 3.81 22.11 3.91 21.78 3.96L21.78 4.47L22.62 4.47L22.62 12.73C22.62 13.71 23.31 14 23.83 14C24.21 14 24.57 13.94 24.77 13.85L24.77 13.34C24.33 13.34 23.94 13.13 23.94 12.70L23.94 7.39C23.94 5.42 25.12 4.47 25.79 4.47C26.61 4.47 27.22 4.86 27.22 6.65C27.22 8.55 26.08 9.98 24.98 9.98L24.39 9.98L24.39 10.50L25.00 10.50C27.15 10.50 28.70 8.83 28.70 6.75C28.70 4.47 27.50 3.81 26.10 3.81C25.37 3.81 24.30 4.42 23.94 5.43ZM32.47 1.29L33.74 1.29C35.25 1.29 35.84 2.31 35.84 3.71C35.84 4.87 35.03 6.02 33.71 6.02L33.05 6.02L33.05 6.61L33.67 6.61C35.59 6.61 37.28 5.89 37.28 3.71C37.28 1.89 36.23 0.70 34.20 0.70L29.86 0.70L29.75 1.29L30.98 1.75L30.98 9.45L29.78 9.91L29.88 10.50L33.57 10.50L33.68 9.91L32.47 9.45ZM40.89 1.29L42.18 1.29C43.69 1.29 44.28 2.14 44.28 3.39C44.28 4.40 43.47 5.49 42.15 5.49L41.50 5.49L41.50 6.08L43.85 9.91L43.74 10.50L46.40 10.50L46.49 9.91L45.29 9.45L43.47 6.47L42.74 6.10C44.30 6.10 45.71 5.08 45.71 3.39C45.71 1.72 44.74 0.70 42.71 0.70L38.30 0.70L38.19 1.29L39.41 1.75L39.41 9.45L38.22 9.91L38.32 10.50L42 10.50L42.10 9.91L40.89 9.45ZM52.12 10.74C53.89 10.74 55.54 9.97 55.54 6.36L55.54 1.75L56.76 1.29L56.66 0.70L53.84 0.70L53.73 1.29L54.96 1.75L54.96 6.31C54.96 8.71 54.10 9.91 52.35 9.91C50.60 9.91 49.92 8.85 49.92 6.29L49.92 1.75L51.14 1.29L51.04 0.70L47.32 0.70L47.22 1.29L48.44 1.75L48.44 6.36C48.44 9.98 50.22 10.74 52.12 10.74Z"></path></g><!----><g data-v-423bf9ae="" id="5ce8e99f-9023-4fc2-9e3c-71be15b0fbee" transform="matrix(1.3117669820785522,0,0,1.3117669820785522,-19.731733322143555,-19.94544792175293)" stroke="none" fill="black"><g data-name="Layer 8"><path d="M42 49.72a2 2 0 0 1-.83-.18c-2.39-1-5.76-7-6.63-10.95-.74-3.35.68-5.92 2.06-8.42a24.63 24.63 0 0 0 1.72-3.54 7.86 7.86 0 0 1 5.39-5.12 13.73 13.73 0 0 1 8-5.35c4-.89 8.42.22 13 3.3a.82.82 0 0 1 .25.24 14.92 14.92 0 0 0 2.88 2.87c2 1.5 7.27 14.29 7.08 16.53 0 .68-.63 6.72-3.41 9.29-.4.37-1.52 1.11-3.29 0-2.64-1.62-5.79-7-4.54-11.46 1.69-6 1.95-9 1.66-9.81a1 1 0 0 1 .66-1.25 1 1 0 0 1 1.29.58c.57 1.52 0 5.24-1.6 11.05-1 3.39 1.56 7.93 3.65 9.21.16.1.69.4.9.21 1.67-1.55 2.57-5.62 2.77-8 .12-1.63-4.72-13.62-6.27-14.75A16.88 16.88 0 0 1 63.52 21c-4.09-2.69-7.9-3.68-11.34-2.93a12 12 0 0 0-7 4.83 1 1 0 0 1-.71.47 5.73 5.73 0 0 0-4.25 3.91 26.63 26.63 0 0 1-1.85 3.83c-1.31 2.37-2.44 4.41-1.86 7 .93 4.19 4.32 9.17 5.46 9.56a9.79 9.79 0 0 0 3.81-6.17 9.52 9.52 0 0 0-1.19-6c-1.91-3.58-2.52-6.33-1.81-8.19a2.83 2.83 0 0 1 1.53-1.69 1 1 0 1 1 .69 1.96 1.11 1.11 0 0 0-.39.63c-.23.74-.32 2.56 1.74 6.43a11.41 11.41 0 0 1 1.4 7.2 11.54 11.54 0 0 1-4.86 7.65 1.72 1.72 0 0 1-.89.23z"></path><path d="M60.69 44.44a5.86 5.86 0 0 1-2.64-.88 7.17 7.17 0 0 1-4 .33 7.46 7.46 0 0 0-.87-.08l-.98.19a4.48 4.48 0 0 1-2 .13 1 1 0 0 1 .52-1.93 9.12 9.12 0 0 0 1.1-.17c.37-.06.74-.13 1.06-.17a6.1 6.1 0 0 1 1.36.07c1 .12 2.44.3 3.12-.28a1 1 0 0 1 1.17-.08 6.73 6.73 0 0 0 2.11.91 1 1 0 0 1 1.27.42 1 1 0 0 1-.37 1.36 1.67 1.67 0 0 1-.85.18zm-.12-1.94zm-9.72-.3zM56.55 36.38a1.87 1.87 0 0 1-.4 0c-1.37-.23-2.86-.65-3.5-2a1.92 1.92 0 0 1-.14-.36 2.83 2.83 0 0 0-1.11-1.23 1 1 0 0 1 .17-1.8c.12-.06.42-.28.65-.44a5.44 5.44 0 0 1 2.08-1.15s3.14-.42 4.12.24c.36.23 2.29 2.15 1.95 3.57A1.47 1.47 0 0 1 59 34.23c-.12 0-.24.19-.47.61a2.36 2.36 0 0 1-1.98 1.54zm-3-4.43a3.85 3.85 0 0 1 .84 1.4v.12c.2.42.82.7 2 .9a1.7 1.7 0 0 0 .34-.48 2.88 2.88 0 0 1 1.42-1.5 6 6 0 0 0-.89-1.14 12.42 12.42 0 0 0-2.77.05 9.59 9.59 0 0 0-.91.7zM46.51 26s1 2.61 4-.43c.02.04-1.51-3.44-4 .43zM60 25.93c-.13-.1 1.47-4.07 3.91-.16.03 0-1 2.39-3.91.16z"></path><path d="M48.41 36.55a1 1 0 0 1-1-1c0-.64.2-3.9.75-5.05a12.66 12.66 0 0 1 1-1.49c.69-1 2.31-3.26 2.12-4-.52-2 .66-5.51.89-5.86a1 1 0 0 1 1.39-.28 1 1 0 0 1 .33 1.3c-.24.55-1 3.15-.68 4.34.4 1.53-.86 3.48-2.42 5.67-.34.49-.69 1-.79 1.19a19.25 19.25 0 0 0-.56 4.29 1 1 0 0 1-1.03.89zM61 31.82a1 1 0 0 1-1-.93A6.83 6.83 0 0 0 57.91 27c-.78-.91-1.47-1.7-1.16-2.66a17.25 17.25 0 0 0-1.23-4.44 1 1 0 1 1 1.86-.72c.61 1.57 1.55 4.31 1.32 5.59a6.56 6.56 0 0 0 .73.92 8.74 8.74 0 0 1 2.52 5 1 1 0 0 1-.95 1.13zM58.65 25zM52.7 40.73a1 1 0 0 1-.47-1.88 10.15 10.15 0 0 0 3.25-3.33 1 1 0 0 1 1.73 1c0 .16.19 1 2.1 2.24a1 1 0 0 1-1.05 1.7 8 8 0 0 1-2.4-2.12 10 10 0 0 1-2.68 2.26 1 1 0 0 1-.48.13zM19.73 68.85A4.58 4.58 0 0 1 16 67.34a2.52 2.52 0 0 1-.55-2.34c.74-2.71 6-4.94 7.56-5.55a6.22 6.22 0 0 0 .45-2.14C22 48.43 25.75 45.24 27 44.42c2.48-6.58 8.44-6.18 8.5-6.18a1 1 0 0 1 .91 1.08 1 1 0 0 1-1.07.91c-.19 0-4.7-.25-6.58 5.2a1 1 0 0 1-.53.58c-.16.08-4.26 2.19-2.79 11.09a1.48 1.48 0 0 1 0 .21c0 .66-.21 2.89-1.22 3.75a.92.92 0 0 1-.3.18c-2.5.94-6.19 2.9-6.56 4.29a.54.54 0 0 0 .14.55c1.57 1.93 6.9-.24 8.66-1 .42-.17.75-.3.92-.35.64-.19 3-1.92 3.41-3.22a.56.56 0 0 0-.09-.61 1 1 0 0 1 .13-1.41 1 1 0 0 1 1.41.13 2.54 2.54 0 0 1 .46 2.47c-.63 2.11-3.64 4.22-4.74 4.55l-.75.29a20.81 20.81 0 0 1-7.18 1.92z"></path><path d="M38.54 69.14a3.72 3.72 0 0 1-2.36-.7 2.6 2.6 0 0 1-1-1.55c-1.93-4.22-3-4.83-3.3-4.91-.12 0-.2 0-.49.18a1.82 1.82 0 0 1-.73.33 1 1 0 0 1-1.15-.83 1 1 0 0 1 .7-1.12l.09-.06a2.49 2.49 0 0 1 2.14-.42c1.47.43 2.9 2.32 4.62 6.13a1.19 1.19 0 0 1 .09.36.62.62 0 0 0 .25.34c.22.16.8.39 2.15.14A1 1 0 0 1 40 69a8.21 8.21 0 0 1-1.46.14z"></path><path d="M54.45 84.47a4.36 4.36 0 0 1-4.17-2.86 3.46 3.46 0 0 0-.43-.72 4.13 4.13 0 0 1-.73-.69c-.43-.51-1-1.2-6-2.08-2.6-.45-4.45-1.51-5.49-3.14a6 6 0 0 1-.81-4.11c-1.25-3 1-8.19 1.33-8.81a1 1 0 0 1 1.82.83c-.92 2-2.08 5.86-1.23 7.35a1 1 0 0 1 .09.75 4.15 4.15 0 0 0 .5 2.94 5.87 5.87 0 0 0 4.14 2.22c5.3.93 6.37 1.76 7.22 2.75a1.65 1.65 0 0 0 .35.35 3.77 3.77 0 0 1 1.06 1.45c.61 1.19 1.09 2.13 3.49 1.65a23 23 0 0 1 3.61-.4 4.7 4.7 0 0 0 2-.31s.16-.25.11-1c-.22-3.25-1.32-5.31-2.21-5.37a6.93 6.93 0 0 1-2.16-.5 13.85 13.85 0 0 1-1.56-.74l-.41-.21c-.45-.11-.7-.48-1.05-1a5.13 5.13 0 0 0-3.3-2.56c-.42-.07-1.72-.3-1.79-1.41 0-.47-.08-1.45 3.75-2.59a1 1 0 1 1 .57 1.91c-.39.12-.79.26-1.16.4a7.42 7.42 0 0 1 3.59 3.14l.19.28c.16.07.33.16.55.28s.82.43 1.34.64a5.23 5.23 0 0 0 1.56.37c2.66.15 3.85 3.83 4.09 7.22a3.31 3.31 0 0 1-.66 2.5c-.76.85-1.92.91-3.39 1a21.24 21.24 0 0 0-3.32.36 7.58 7.58 0 0 1-1.49.11zm-4-16.25z"></path><path d="M82.13 84.35a13.46 13.46 0 0 1-5.47-1.75 11.13 11.13 0 0 0-1.23-.6c-1.09 0-1.37-1-1.5-1.49a2.81 2.81 0 0 0-1.27-1.83c-2.53-1.77-4.38-3.29-5.2-4.94a16.66 16.66 0 0 0-4.69-4.52 7.71 7.71 0 0 0-1.08 1.9l-.37.78a6.29 6.29 0 0 1-2.88 2.41 4.13 4.13 0 0 0-.57.32 1 1 0 0 1-1.22-1.59 6.28 6.28 0 0 1 .87-.51 4.7 4.7 0 0 0 2-1.53l.35-.72c.66-1.44 1.36-2.93 2.71-3.08.32 0 1.17-.13 3.7 2.2a15.81 15.81 0 0 1 3 3.45c.67 1.34 2.59 2.81 4.56 4.19a4.76 4.76 0 0 1 2 3v.06a9.26 9.26 0 0 1 1.67.71c1.71.85 4.58 2.26 5.89 1.12a3.92 3.92 0 0 0 1.6-3.5A2 2 0 0 0 83.4 77c-2.84-.76-5-3.07-6.44-4.59-.36-.39-.67-.72-.93-1a17 17 0 0 1-2.17-2.9c-.84-1.27-2-3-2.65-3.38-1-.6-1.21-2.15-1.45-4.5-.28-2.65-.61-5.94-2.36-7.31a1 1 0 0 1-.37-1c.16-.82.36-3.21-.57-4.42a1 1 0 0 1 1.59-1.22c1.31 1.71 1.18 4.27 1 5.44 2 2 2.37 5.45 2.66 8.28a10.49 10.49 0 0 0 .53 3c1 .56 2.09 2.21 3.25 3.95A17 17 0 0 0 77.38 70c.29.27.64.64 1 1.07 1.35 1.44 3.21 3.42 5.49 4a3.92 3.92 0 0 1 3 2.89 5.82 5.82 0 0 1-2.19 5.45 3.82 3.82 0 0 1-2.55.94zM30.88 42a1 1 0 0 1-.74-.33c-1.74-1.91-4.75-5.13-5.42-5.64a1.06 1.06 0 0 1 .33-1.91c1.11-.28 7.39 1.93 9.09 3.95a1 1 0 1 1-1.53 1.29 11.71 11.71 0 0 0-4-2.26c1.36 1.43 2.73 2.94 3 3.22a1 1 0 0 1-.06 1.41 1 1 0 0 1-.67.27zM44.06 62.09a4.09 4.09 0 0 1-2.41-1.15 4.68 4.68 0 0 0-.52-.39c-1 0-1.56-1.14-2.27-3.54a10.5 10.5 0 0 1 0 1.11 1.71 1.71 0 0 1-1.06 1.4 5.38 5.38 0 0 1-4.4-.34c-1.24-.83-1.33-3.46-1.31-7.39v-.72c0-2.84 3.78-8.13 4.21-8.73a1 1 0 0 1 1.62 1.18c-1.48 2-3.83 5.9-3.83 7.55v.73c0 1.54 0 5.15.47 5.76a3.84 3.84 0 0 0 2.32.18v-1.69c0-2.85 0-4.26.42-4.93a1.14 1.14 0 0 1 1.06-.54c.87.11 1.06.79 1.82 3.64a29.73 29.73 0 0 0 1.39 4.36 3.56 3.56 0 0 1 1.36.8c.31.25 1 .78 1.19.7 0 0 .62-.23 1.23-2.63a16.35 16.35 0 0 1 2.5-6c.37-.53.37-.54.3-.93A60.13 60.13 0 0 0 46 43.94a1 1 0 0 1 .58-1.29 1 1 0 0 1 1.29.58 59.75 59.75 0 0 1 2.22 6.91 2.75 2.75 0 0 1-.63 2.42A14.63 14.63 0 0 0 47.27 58c-.61 2.37-1.41 3.65-2.54 4a2.29 2.29 0 0 1-.67.09z"></path></g></g><!----></svg>